<svg width="284" height="270" xmlns="http://www.w3.org/2000/svg" xmlns:xlink="http://www.w3.org/1999/xlink" xml:space="preserve" overflow="hidden"><defs><clipPath id="clip0"><rect x="1076" y="793" width="284" height="270"/></clipPath></defs><g clip-path="url(#clip0)" transform="translate(-1076 -793)"><path d="M1218 793C1139.63 793 1076 835.025 1076 928 1076 1020.98 1139.63 1063 1218 1063 1296.47 1063 1360 1020.98 1360 928 1360.1 835.025 1296.47 793 1218 793ZM1298.27 1007.84C1279.13 1024.29 1251.37 1034.62 1218.1 1034.62 1184.73 1034.62 1156.97 1024.29 1137.93 1007.84 1117.29 989.984 1104.56 963.204 1104.56 928 1104.56 892.796 1117.29 866.016 1137.93 848.163 1157.07 831.715 1184.83 821.384 1218.1 821.384 1251.47 821.384 1279.23 831.715 1298.27 848.163 1318.91 866.016 1331.64 892.796 1331.64 928 1331.64 963.204 1318.91 990.084 1298.27 1007.84Z" fill-rule="evenodd"/><path d="M1279.97 870 1297 887.021 1198.61 986 1142 929.234 1159.03 912.213 1198.61 951.872Z" fill-rule="evenodd"/></g></svg>