<svg width="98" height="97" xmlns="http://www.w3.org/2000/svg" xmlns:xlink="http://www.w3.org/1999/xlink" xml:space="preserve" overflow="hidden"><defs><clipPath id="clip0"><rect x="659" y="51" width="98" height="97"/></clipPath></defs><g clip-path="url(#clip0)" transform="translate(-659 -51)"><path d="M41.1951 72.0571 18.3393 49.2356 25.2166 42.3926 41.1951 58.3369 74.0416 25.4219 80.9189 32.2649 41.1951 72.0571ZM87.2829 16.9707 87.2829 80.0293 9.68289 80.0293 9.68289 16.9707 87.2829 16.9707M97 7.28783 87.3171 7.28783 9.68289 7.28783 0 7.28783 0 16.9707 0 80.0293 0 89.7122 9.68289 89.7122 87.2829 89.7122 96.9658 89.7122 96.9658 80.0293 96.9658 16.9707 96.9658 7.28783 97 7.28783Z" transform="matrix(1.01031 0 0 1 659 51)"/></g></svg>