<svg width="83" height="83" xmlns="http://www.w3.org/2000/svg" xmlns:xlink="http://www.w3.org/1999/xlink" xml:space="preserve" overflow="hidden"><g transform="translate(-538 -51)"><path d="M587.39 72.6649C585.107 71.9915 582.735 71.7573 580.364 71.728 577.582 71.6988 574.83 71.933 572.166 72.8113 567.862 74.2166 564.993 76.9686 564.115 81.5358 563.969 82.3263 563.91 83.1168 563.822 83.9072 567.101 83.9072 570.263 83.9072 573.454 83.9072 573.484 83.7901 573.484 83.7023 573.484 83.6145 573.776 81.4772 574.772 80.3647 576.85 79.867 577.992 79.6035 579.134 79.545 580.276 79.6035 581.301 79.6621 582.296 79.7499 583.233 80.1891 584.902 80.9503 585.311 82.5605 584.17 83.9951 583.701 84.5513 583.174 85.049 582.589 85.5175 580.949 86.8056 579.28 88.0353 577.641 89.3235 576.119 90.5238 574.889 91.9291 574.245 93.7735 573.806 95.0032 573.718 96.2914 573.659 97.5795 573.63 98.1651 573.659 98.7799 573.659 99.3654 576.821 99.3654 579.954 99.3654 583.116 99.3654 583.116 99.1019 583.116 98.897 583.116 98.6921 582.999 96.9354 583.643 95.5009 584.931 94.3591 586.512 92.9538 588.122 91.5778 589.732 90.231 591.079 89.0892 592.396 87.9474 593.45 86.5129 595.968 83.0289 595.617 78.5496 592.572 75.534 591.138 74.0702 589.322 73.2504 587.39 72.6649Z"/><path d="M580.92 103.084C580.042 102.791 579.134 102.732 578.226 102.791 575.416 102.937 573.22 104.518 572.957 107.592 572.781 109.729 573.718 111.632 575.504 112.54 576.499 113.067 577.582 113.272 578.695 113.243 578.841 113.243 578.988 113.243 579.105 113.243 580.627 113.155 582.032 112.745 583.116 111.603 584.316 110.315 584.58 108.734 584.345 107.065 584.053 105.016 582.852 103.728 580.92 103.084Z"/><path d="M579.485 53.0787C556.591 53.0787 538 65.3457 538 92.4854 538 119.625 556.591 131.892 579.485 131.892 602.409 131.892 620.971 119.625 620.971 92.4854 621 65.3457 602.409 53.0787 579.485 53.0787ZM602.936 115.79C597.344 120.591 589.235 123.607 579.515 123.607 569.765 123.607 561.656 120.591 556.093 115.79 550.062 110.578 546.344 102.762 546.344 92.4854 546.344 82.2092 550.062 74.3922 556.093 69.181 561.685 64.3795 569.795 61.364 579.515 61.364 589.264 61.364 597.374 64.3795 602.936 69.181 608.967 74.3922 612.685 82.2092 612.685 92.4854 612.685 102.762 608.967 110.608 602.936 115.79Z"/></g></svg>